<?xml version="1.0" encoding="UTF-8"?>
<svg version="1.1" xmlns="http://www.w3.org/2000/svg" width="1280" height="512">
<path d="M0 0 C2.80944129 0.01070125 5.61883322 0.01041884 8.42829132 0.01001167 C22.92177614 0.01042179 37.40895075 0.16818907 51.89678955 0.58233643 C53.12379578 0.61245316 54.350802 0.64256989 55.61499023 0.67359924 C70.77924572 1.17078686 84.91777852 4.76821545 96.38116455 15.19561768 C97.00635986 15.74089111 97.63155518 16.28616455 98.2756958 16.84796143 C109.8093707 27.52729003 113.83682005 42.42994041 114.48931885 57.73199463 C114.99526633 79.95857746 113.63907515 100.14149697 97.81866455 117.25811768 C87.2109799 127.28756388 75.11260285 131.37127798 61.38116455 135.19561768 C60.02413087 135.58271824 58.66733488 135.97065371 57.31085205 136.35968018 C56.34405518 136.63553955 55.3772583 136.91139893 54.38116455 137.19561768 C59.73791793 143.60938414 65.5836251 149.48212072 71.53570175 155.33362389 C73.22036642 156.99129782 74.90032301 158.65361046 76.57894897 160.31739807 C81.34567183 165.04169024 86.11530519 169.76293181 90.9006958 174.46832275 C93.84161557 177.3607429 96.7726963 180.26282046 99.69757462 183.17145729 C100.80951749 184.27351457 101.92510358 185.37190875 103.04439926 186.46649742 C104.60462723 187.99299361 106.15201602 189.53148418 107.69708252 191.07330322 C109.02109573 192.37946846 109.02109573 192.37946846 110.37185669 193.71202087 C112.49780223 196.3397872 113.18097019 197.84821951 113.38116455 201.19561768 C112.26397705 203.08233643 112.26397705 203.08233643 110.50616455 204.88311768 C109.86292236 205.56245361 109.21968018 206.24178955 108.5569458 206.94171143 C107.83893799 207.68550049 107.12093018 208.42928955 106.38116455 209.19561768 C104.81392296 210.94137254 103.25148713 212.69145262 101.69366455 214.44561768 C100.26614172 216.0379522 98.82913459 217.62185357 97.38116455 219.19561768 C96.42790283 220.31903564 96.42790283 220.31903564 95.4553833 221.46514893 C92.79686819 223.6830815 91.30490813 223.70366184 87.88116455 223.63311768 C86.4735083 223.63118408 86.4735083 223.63118408 85.03741455 223.62921143 C82.00855498 223.13479464 80.57657531 222.3133606 78.38116455 220.19561768 C78.38116455 219.53561768 78.38116455 218.87561768 78.38116455 218.19561768 C77.80140869 217.9403833 77.22165283 217.68514893 76.62432861 217.42218018 C74.15101143 216.06976991 72.48514346 214.55829244 70.49053955 212.57061768 C69.78155518 211.86421143 69.0725708 211.15780518 68.34210205 210.42999268 C67.61249268 209.69264893 66.8828833 208.95530518 66.13116455 208.19561768 C65.38608643 207.45827393 64.6410083 206.72093018 63.87335205 205.96124268 C63.16952393 205.25483643 62.4656958 204.54843018 61.74053955 203.82061768 C61.09568604 203.1735083 60.45083252 202.52639893 59.78643799 201.85968018 C58.38116455 200.19561768 58.38116455 200.19561768 58.38116455 198.19561768 C57.72116455 198.19561768 57.06116455 198.19561768 56.38116455 198.19561768 C56.38116455 197.53561768 56.38116455 196.87561768 56.38116455 196.19561768 C55.76241455 195.94811768 55.14366455 195.70061768 54.50616455 195.44561768 C52.03047768 193.98933128 51.42991453 192.81749261 50.38116455 190.19561768 C49.72116455 190.19561768 49.06116455 190.19561768 48.38116455 190.19561768 C48.38116455 189.53561768 48.38116455 188.87561768 48.38116455 188.19561768 C47.72116455 188.19561768 47.06116455 188.19561768 46.38116455 188.19561768 C46.38116455 187.53561768 46.38116455 186.87561768 46.38116455 186.19561768 C45.72116455 186.19561768 45.06116455 186.19561768 44.38116455 186.19561768 C44.38116455 185.53561768 44.38116455 184.87561768 44.38116455 184.19561768 C43.72116455 184.19561768 43.06116455 184.19561768 42.38116455 184.19561768 C42.38116455 183.53561768 42.38116455 182.87561768 42.38116455 182.19561768 C41.72116455 182.19561768 41.06116455 182.19561768 40.38116455 182.19561768 C40.38116455 181.53561768 40.38116455 180.87561768 40.38116455 180.19561768 C39.72116455 180.19561768 39.06116455 180.19561768 38.38116455 180.19561768 C38.38116455 179.53561768 38.38116455 178.87561768 38.38116455 178.19561768 C37.72116455 178.19561768 37.06116455 178.19561768 36.38116455 178.19561768 C34.99298096 176.78619385 34.99298096 176.78619385 33.35772705 174.80108643 C29.07730886 169.77120874 24.44668031 165.15340566 19.75616455 160.50811768 C18.85043701 159.60617676 17.94470947 158.70423584 17.01153564 157.77496338 C14.13716886 154.91273204 11.25969515 152.05365966 8.38116455 149.19561768 C4.58641117 145.42787435 0.79535074 141.65646222 -2.99383545 137.88311768 C-3.8544458 137.03080566 -4.71505615 136.17849365 -5.60174561 135.300354 C-9.95258481 130.96708962 -14.15181758 126.57470992 -18.13299561 121.89801025 C-19.59213293 120.17194611 -19.59213293 120.17194611 -21.25311279 118.64752197 C-23.46763732 116.29325358 -23.55656134 114.37159708 -23.61883545 111.19561768 C-21.31000505 106.67031009 -18.17735358 102.58344587 -13.61883545 100.19561768 C-9.51660588 99.46832123 -5.46755254 99.52190149 -1.3102417 99.55889893 C0.48812889 99.54333199 0.48812889 99.54333199 2.3228302 99.52745056 C6.15506582 99.49778913 9.9863352 99.50113009 13.81866455 99.50811768 C18.83831551 99.4962932 23.85772993 99.47073 28.8772583 99.43389893 C30.07637344 99.42534378 31.27548859 99.41678864 32.51094055 99.40797424 C52.49636705 99.49953075 52.49636705 99.49953075 69.81866455 90.94561768 C76.21511096 79.68787199 77.3908035 65.57803553 74.0725708 53.09405518 C72.11862378 47.72898029 69.37502348 44.75491668 64.38116455 42.19561768 C53.91780346 39.60622743 42.97091902 39.89972165 32.2678833 39.92999268 C30.56067347 39.92864123 28.85346402 39.92669674 27.14625549 39.92419434 C23.59553303 39.92126958 20.04491218 39.9254571 16.49420166 39.93487549 C11.96431563 39.94631227 7.43466558 39.93966707 2.90478802 39.92773056 C-0.61012019 39.92047714 -4.1249731 39.92281509 -7.63988304 39.92798615 C-9.30988786 39.92931076 -10.97989786 39.92771708 -12.64989662 39.92302704 C-28.49987024 39.66011993 -28.49987024 39.66011993 -42.61883545 46.19561768 C-44.10383545 46.69061768 -44.10383545 46.69061768 -45.61883545 47.19561768 C-45.61883545 47.85561768 -45.61883545 48.51561768 -45.61883545 49.19561768 C-47.1227417 50.67608643 -47.1227417 50.67608643 -49.18133545 52.38311768 C-56.72933189 58.81486112 -64.09683093 65.91261089 -69.61883545 74.19561768 C-70.27883545 74.19561768 -70.93883545 74.19561768 -71.61883545 74.19561768 C-71.85989014 74.75764893 -72.10094482 75.31968018 -72.3493042 75.89874268 C-73.87729004 78.66322168 -75.75965796 80.65349421 -77.93133545 82.94561768 C-83.63671551 89.16549256 -88.63804622 95.16628159 -88.99383545 103.88311768 C-89.04281982 104.69135986 -89.0918042 105.49960205 -89.14227295 106.33233643 C-87.86457638 113.32152737 -82.49263648 118.75904012 -77.56268311 123.57647705 C-76.97822922 124.15976273 -76.39377533 124.7430484 -75.79161072 125.3440094 C-73.87894325 127.24955369 -71.95598552 129.14434523 -70.03289795 131.03936768 C-68.68844665 132.37566793 -67.3447395 133.71271725 -66.0017395 135.05047607 C-62.47634658 138.55881897 -58.94247675 142.05848943 -55.40625 145.5559082 C-49.75260867 151.15018702 -44.1116356 156.75723091 -38.47138596 162.36500549 C-36.51172172 164.31083563 -34.54821989 166.25272391 -32.58407593 168.19403076 C-27.23595747 173.49220757 -21.96375399 178.77066724 -17.0859375 184.5123291 C-14.6342773 187.32525653 -11.94433515 189.87826999 -9.2477417 192.45343018 C-8.0849045 193.5841926 -6.92281563 194.71572501 -5.76141357 195.84796143 C-3.96216759 197.59757815 -2.15890727 199.3420065 -0.3427124 201.07403564 C1.43202007 202.77011817 3.18702491 204.4846615 4.9397583 206.20343018 C5.48651718 206.71608429 6.03327606 207.2287384 6.59660339 207.75692749 C9.04452345 210.18675222 10.30887024 211.85640507 11.03375244 215.25762939 C10.12834104 219.33384371 8.75415548 220.75774877 5.38116455 223.19561768 C2.54953609 223.67244385 0.33623064 223.85402261 -2.4821167 223.78936768 C-3.60833687 223.7894281 -3.60833687 223.7894281 -4.75730896 223.78948975 C-6.34168896 223.78414423 -7.92606914 223.76660247 -9.51019287 223.73760986 C-11.9137848 223.69592207 -14.31455377 223.69653165 -16.71844482 223.70343018 C-18.26468795 223.69292971 -19.81091681 223.679987 -21.3571167 223.66436768 C-22.06572342 223.66416626 -22.77433014 223.66396484 -23.50440979 223.66375732 C-29.37792145 223.52711878 -34.90602354 222.30326385 -39.65008545 218.61749268 C-40.13477295 218.06577393 -40.61946045 217.51405518 -41.11883545 216.94561768 C-43.38713694 214.44166691 -45.72305205 212.1774374 -48.29827881 209.99224854 C-52.80958726 206.08218911 -57.03344946 201.92525019 -61.2477417 197.69952393 C-62.04107407 196.90714828 -62.83440643 196.11477264 -63.65177917 195.29838562 C-65.31772626 193.63311485 -66.98242801 191.96659739 -68.64593506 190.29888916 C-71.17419679 187.76527146 -73.70775206 185.237036 -76.24188232 182.70928955 C-77.86915615 181.08135485 -79.4961197 179.45310993 -81.1227417 177.82452393 C-81.8708461 177.07844376 -82.6189505 176.33236359 -83.38972473 175.56367493 C-87.44795858 171.4875353 -91.31731521 167.31301826 -95.07304382 162.95710754 C-97.01810084 160.74063919 -99.08266454 158.68328981 -101.21258545 156.64483643 C-102.01567139 155.86302002 -102.81875732 155.08120361 -103.6461792 154.2756958 C-105.28877165 152.68629947 -106.9371901 151.1029012 -108.5914917 149.5256958 C-120.90092359 137.4830012 -127.98599973 123.36307105 -129.61883545 106.19561768 C-129.69102295 105.47760986 -129.76321045 104.75960205 -129.83758545 104.01983643 C-130.7167178 86.32729793 -119.30821244 70.16832678 -108.61883545 57.19561768 C-107.84539795 56.19659424 -107.07196045 55.1975708 -106.27508545 54.16827393 C-102.23788307 48.95355418 -102.23788307 48.95355418 -100.61883545 47.19561768 C-99.95883545 47.19561768 -99.29883545 47.19561768 -98.61883545 47.19561768 C-98.37133545 46.63874268 -98.12383545 46.08186768 -97.86883545 45.50811768 C-96.38958727 42.77150854 -94.68416106 40.51910898 -92.61883545 38.19561768 C-91.95883545 38.19561768 -91.29883545 38.19561768 -90.61883545 38.19561768 C-90.35457764 37.6113501 -90.09031982 37.02708252 -89.8180542 36.42510986 C-87.74249382 32.56639297 -84.60567259 29.61838243 -81.61883545 26.44561768 C-80.97688232 25.74823486 -80.3349292 25.05085205 -79.67352295 24.33233643 C-79.05735107 23.67362549 -78.4411792 23.01491455 -77.80633545 22.33624268 C-77.24301514 21.73328369 -76.67969482 21.13032471 -76.0993042 20.50909424 C-74.61883545 19.19561768 -74.61883545 19.19561768 -72.61883545 19.19561768 C-72.12383545 17.71061768 -72.12383545 17.71061768 -71.61883545 16.19561768 C-69.56323987 14.59294994 -67.53485347 13.13173028 -65.36883545 11.69561768 C-64.79520264 11.30503174 -64.22156982 10.9144458 -63.6305542 10.51202393 C-44.58897729 -2.37031854 -22.13480634 -0.10553324 0 0 Z " fill="#FCFBFB" transform="translate(256.61883544921875,142.80438232421875)"/>
<path d="M0 0 C1.66895576 -0.01429802 1.66895576 -0.01429802 3.37162781 -0.02888489 C5.18857903 -0.02751778 5.18857903 -0.02751778 7.04223633 -0.02612305 C8.29120193 -0.03040817 9.54016754 -0.0346933 10.82698059 -0.03910828 C13.48277691 -0.04486595 16.13818676 -0.04627337 18.79394531 -0.04101562 C21.49105672 -0.03642144 24.18771348 -0.04315036 26.88476562 -0.06152344 C69.37878818 -0.33108581 69.37878818 -0.33108581 83.86645508 13.13012695 C91.33843117 21.93294857 94.19077262 32.9907148 93.93676758 44.30981445 C92.91572563 56.41873387 89.26422078 64.96807472 80.82348633 73.53637695 C77.65487734 76.11413015 74.18019202 78.16765533 70.68676758 80.2746582 C72.63198334 83.92261995 74.57907565 87.56957242 76.52801514 91.21554565 C77.21566919 92.50212093 77.90304837 93.78884316 78.59014893 95.07571411 C83.2144853 103.73330317 87.88044262 112.36140217 92.8034668 120.85424805 C94.75491581 124.28558117 96.35504458 127.30119355 96.68676758 131.2746582 C96.35676758 131.9346582 96.02676758 132.5946582 95.68676758 133.2746582 C91.31290959 133.53676709 86.94106948 133.69610707 82.56176758 133.8371582 C81.32426758 133.91256836 80.08676758 133.98797852 78.81176758 134.06567383 C70.04404836 134.27779607 70.04404836 134.27779607 66.82568359 131.89916992 C65.10620785 129.46447666 63.93623254 126.98509695 62.68676758 124.2746582 C61.95869381 122.8731483 61.22264031 121.4757686 60.48071289 120.08154297 C57.88400811 115.17641644 55.37658534 110.22842786 52.87426758 105.2746582 C51.57134321 102.70532883 50.26683269 100.13682284 48.96028137 97.56933594 C48.15212578 95.98022215 47.34629463 94.3899237 46.54301453 92.79833984 C44.94825143 89.31008278 44.94825143 89.31008278 42.68676758 86.2746582 C41.0542 86.11751166 39.4154142 86.02380407 37.77661133 85.95825195 C36.78725586 85.91635742 35.79790039 85.87446289 34.77856445 85.83129883 C33.73764648 85.79198242 32.69672852 85.75266602 31.62426758 85.7121582 C30.05708984 85.64738281 30.05708984 85.64738281 28.45825195 85.58129883 C25.86789874 85.47484596 23.27744572 85.37283061 20.68676758 85.2746582 C20.68898819 85.8317598 20.6912088 86.38886139 20.6934967 86.96284485 C20.71559633 92.75386922 20.73069379 98.54488164 20.74169922 104.3359375 C20.7467323 106.49805182 20.75355927 108.66016274 20.76220703 110.82226562 C20.77431737 113.92749879 20.7800061 117.03268701 20.78442383 120.13793945 C20.78958511 121.10677567 20.7947464 122.07561188 20.80006409 123.07380676 C20.80017738 124.42486763 20.80017738 124.42486763 20.80029297 125.80322266 C20.80251358 126.59598099 20.80473419 127.38873932 20.80702209 128.20552063 C20.68676758 130.2746582 20.68676758 130.2746582 19.68676758 133.2746582 C11.10676758 133.2746582 2.52676758 133.2746582 -6.31323242 133.2746582 C-7.57981505 130.74149294 -7.44192485 128.98675407 -7.44694519 126.15026855 C-7.45121017 125.06498367 -7.45547516 123.97969879 -7.45986938 122.86152649 C-7.4594162 121.66561386 -7.45896301 120.46970123 -7.45849609 119.23754883 C-7.46185471 117.98225876 -7.46521332 116.72696869 -7.46867371 115.43363953 C-7.47752242 111.98538168 -7.47985215 108.53714864 -7.48048949 105.08888054 C-7.48143779 102.21344123 -7.48511507 99.33800774 -7.48866159 96.46257067 C-7.49680907 89.68134296 -7.49924551 82.90012853 -7.49853516 76.11889648 C-7.49793392 69.11496335 -7.50849411 62.11110713 -7.52427882 55.10719347 C-7.53733582 49.10037386 -7.54271985 43.09357944 -7.54207975 37.08674574 C-7.54182426 33.49622363 -7.54470317 29.90576987 -7.5552578 26.31526184 C-7.56669844 22.31404318 -7.56220331 18.31299798 -7.55615234 14.31176758 C-7.56177185 13.11585495 -7.56739136 11.91994232 -7.57318115 10.68778992 C-7.56898666 9.60250504 -7.56479218 8.51722015 -7.56047058 7.39904785 C-7.56101535 6.45219872 -7.56156012 5.50534958 -7.56212139 4.52980804 C-7.03427458 -0.2529417 -4.06712499 0.01910801 0 0 Z M20.68676758 22.2746582 C20.68676758 36.1346582 20.68676758 49.9946582 20.68676758 64.2746582 C25.28614258 64.3365332 29.88551758 64.3984082 34.62426758 64.4621582 C36.77236938 64.50312622 36.77236938 64.50312622 38.96386719 64.54492188 C50.4925042 64.70823755 50.4925042 64.70823755 60.5534668 59.72338867 C65.39810966 54.8697101 66.58336498 49.43661287 66.74926758 42.7590332 C66.4478738 36.618135 64.83495937 31.88021474 60.68676758 27.2746582 C54.96484374 22.7676634 49.14006869 22.14473445 42.07348633 22.17700195 C40.949021 22.17949951 39.82455566 22.18199707 38.66601562 22.18457031 C37.24973877 22.19367432 35.83346191 22.20277832 34.37426758 22.2121582 C27.59895508 22.2430957 27.59895508 22.2430957 20.68676758 22.2746582 Z " fill="#FAF8F8" transform="translate(446.313232421875,186.725341796875)"/>
<path d="M0 0 C1.12019531 -0.00128906 2.24039062 -0.00257813 3.39453125 -0.00390625 C4.57402344 -0.00003906 5.75351563 0.00382813 6.96875 0.0078125 C8.73798828 0.00201172 8.73798828 0.00201172 10.54296875 -0.00390625 C12.22326172 -0.00197266 12.22326172 -0.00197266 13.9375 0 C14.97326172 0.00112793 16.00902344 0.00225586 17.07617188 0.00341797 C19.46875 0.1328125 19.46875 0.1328125 20.46875 1.1328125 C20.56714707 2.83875341 20.59507028 4.54879221 20.59573364 6.25756836 C20.59996338 7.92346512 20.59996338 7.92346512 20.60427856 9.62301636 C20.60124222 11.4667131 20.60124222 11.4667131 20.59814453 13.34765625 C20.60077301 15.27667282 20.60077301 15.27667282 20.60345459 17.24465942 C20.60802853 20.78175414 20.60623953 24.31881982 20.6030755 27.85591507 C20.6005517 31.54969616 20.6028895 35.24347468 20.60446167 38.93725586 C20.60628331 45.14144337 20.60387721 51.34561898 20.59912109 57.54980469 C20.59367848 64.73264614 20.59544114 71.91545921 20.6009475 79.09829998 C20.6054788 85.25455055 20.6061291 91.41079256 20.60350883 97.56704426 C20.60194615 101.24862954 20.60175205 104.93020146 20.60504532 108.61178589 C20.60845812 112.71386407 20.60373402 116.81589297 20.59814453 120.91796875 C20.60016876 122.14709991 20.60219299 123.37623108 20.60427856 124.64260864 C20.60145874 125.75320648 20.59863892 126.86380432 20.59573364 128.00805664 C20.5951681 129.46484581 20.5951681 129.46484581 20.59459114 130.95106506 C20.46875 133.1328125 20.46875 133.1328125 19.46875 134.1328125 C15.4966793 134.41292434 11.51202584 134.36460426 7.53125 134.3828125 C5.84612305 134.41375 5.84612305 134.41375 4.12695312 134.4453125 C3.05509766 134.45046875 1.98324219 134.455625 0.87890625 134.4609375 C-0.10972412 134.4702832 -1.09835449 134.47962891 -2.11694336 134.48925781 C-2.91366455 134.37163086 -3.71038574 134.25400391 -4.53125 134.1328125 C-6.65633244 130.94518885 -7.0332663 128.86769027 -7.53125 125.1328125 C-8.2325 125.67550781 -8.93375 126.21820313 -9.65625 126.77734375 C-20.44354717 134.91178659 -28.98252674 137.84115829 -42.53125 136.1328125 C-53.96403668 133.3488547 -63.08044633 127.5295185 -69.25390625 117.45703125 C-77.95220427 101.6298529 -79.7774449 83.68961834 -75.53125 66.1328125 C-71.841767 54.13155083 -66.20782841 43.75199813 -54.81640625 37.6875 C-44.70055241 32.93508544 -33.46880841 30.89246615 -22.53125 34.4453125 C-21.18625157 34.9793193 -19.85117307 35.53952749 -18.53125 36.1328125 C-17.438125 36.6071875 -16.345 37.0815625 -15.21875 37.5703125 C-12.5038617 39.14873593 -10.66309209 40.84869597 -8.53125 43.1328125 C-7.87125 43.4628125 -7.21125 43.7928125 -6.53125 44.1328125 C-6.53648682 42.83545166 -6.54172363 41.53809082 -6.54711914 40.20141602 C-6.56516469 35.40633835 -6.57668037 30.6112637 -6.58618164 25.81616211 C-6.59122288 23.73738094 -6.59805574 21.65860334 -6.60668945 19.57983398 C-6.61876422 16.59878664 -6.62448024 13.61778601 -6.62890625 10.63671875 C-6.63664818 9.23360191 -6.63664818 9.23360191 -6.64454651 7.80213928 C-6.64462204 6.94132248 -6.64469757 6.08050568 -6.64477539 5.19360352 C-6.646996 4.43193375 -6.64921661 3.67026398 -6.65150452 2.88551331 C-6.38266114 -1.03285925 -3.22196124 0.00350867 0 0 Z M-43.84375 61.3828125 C-50.75731466 70.28778437 -51.1635433 80.21989842 -50.53125 91.1328125 C-49.40822895 98.63230898 -46.94194333 104.72211917 -41.53125 110.1328125 C-36.70158204 113.53553311 -31.34937691 114.27321979 -25.53125 114.1328125 C-19.45975103 113.04130707 -14.77980279 110.67777595 -10.53125 106.1328125 C-4.44435839 95.57829851 -3.66317302 81.85462955 -6.77734375 70.16015625 C-9.15595532 63.76378627 -12.42039144 59.38326918 -18.53125 56.1328125 C-27.39201996 53.39936587 -37.41105185 54.34951846 -43.84375 61.3828125 Z " fill="#FAF8F8" transform="translate(1031.53125,185.8671875)"/>
<path d="M0 0 C9.9399087 7.81546643 15.11829564 17.97415612 17.2265625 30.3828125 C17.93717383 37.00851248 18.52338432 42.92979386 15.50390625 48.96875 C-6.27609375 48.96875 -28.05609375 48.96875 -50.49609375 48.96875 C-48.39761839 60.29495048 -48.39761839 60.29495048 -42.18359375 69.34375 C-33.77789685 74.42626441 -24.77499155 73.17157008 -15.49609375 71.96875 C-15.49609375 71.30875 -15.49609375 70.64875 -15.49609375 69.96875 C-13.51348949 68.28142723 -11.51285955 66.61508943 -9.49609375 64.96875 C-9.16609375 64.30875 -8.83609375 63.64875 -8.49609375 62.96875 C-5.63772384 62.01596003 -3.82964815 61.84003874 -0.86328125 61.8359375 C0.02488281 61.83464844 0.91304687 61.83335937 1.828125 61.83203125 C3.21451172 61.83783203 3.21451172 61.83783203 4.62890625 61.84375 C5.56089844 61.83988281 6.49289062 61.83601563 7.453125 61.83203125 C8.33871094 61.83332031 9.22429687 61.83460938 10.13671875 61.8359375 C11.35705811 61.83762939 11.35705811 61.83762939 12.60205078 61.83935547 C14.50390625 61.96875 14.50390625 61.96875 15.50390625 62.96875 C16.52672224 68.66729625 13.86974104 72.31165825 11.01171875 76.9921875 C10.51414062 77.64445312 10.0165625 78.29671875 9.50390625 78.96875 C8.84390625 78.96875 8.18390625 78.96875 7.50390625 78.96875 C7.50390625 79.62875 7.50390625 80.28875 7.50390625 80.96875 C6.84390625 80.96875 6.18390625 80.96875 5.50390625 80.96875 C5.25253906 81.5771875 5.00117187 82.185625 4.7421875 82.8125 C1.28197724 88.83785035 -8.18932937 91.41819733 -14.50390625 93.23828125 C-28.08146814 96.14573517 -43.45465259 95.38163927 -55.4453125 88.203125 C-61.30704105 84.22748 -65.84198982 80.04018422 -69.49609375 73.96875 C-69.94597656 73.23140625 -70.39585937 72.4940625 -70.859375 71.734375 C-78.87909774 57.25629147 -79.04857772 40.51641846 -75.62890625 24.6796875 C-73.77424805 18.60408304 -70.81988865 13.36877843 -67.49609375 7.96875 C-66.83609375 7.96875 -66.17609375 7.96875 -65.49609375 7.96875 C-65.24601563 7.37964844 -64.9959375 6.79054687 -64.73828125 6.18359375 C-60.04982063 -2.17602 -49.22838555 -5.81072518 -40.63671875 -8.64453125 C-26.21859358 -11.24926554 -12.0497368 -8.27871291 0 0 Z M-45.796875 18.890625 C-48.8253178 22.59437573 -50.49609375 27.16349526 -50.49609375 31.96875 C-36.96609375 31.96875 -23.43609375 31.96875 -9.49609375 31.96875 C-10.12721223 23.26309421 -10.12721223 23.26309421 -14.49609375 16.96875 C-24.55865061 9.52245792 -36.77322729 10.45200749 -45.796875 18.890625 Z " fill="#F9F7F7" transform="translate(674.49609375,228.03125)"/>
<path d="M0 0 C0.79083984 0.00563965 1.58167969 0.0112793 2.39648438 0.01708984 C15.58930661 0.29081109 26.86536593 5.88666737 36.125 15.3125 C47.1473818 27.78195427 46.125 42.1134973 46.125 58.3125 C24.015 58.3125 1.905 58.3125 -20.875 58.3125 C-19.8162544 67.84121037 -18.19124669 73.70094664 -10.8125 79.875 C-3.58176096 83.41344676 4.39609347 82.93948076 12.08203125 81.07421875 C16.03646529 79.59981218 18.29010619 76.68658626 20.42504883 73.17285156 C22.125 71.3125 22.125 71.3125 24.5769043 70.85839844 C25.52476807 70.8793457 26.47263184 70.90029297 27.44921875 70.921875 C28.99125977 70.94121094 28.99125977 70.94121094 30.56445312 70.9609375 C31.63630859 70.99445313 32.70816406 71.02796875 33.8125 71.0625 C34.89595703 71.08054687 35.97941406 71.09859375 37.09570312 71.1171875 C39.77302146 71.16436492 42.44856909 71.23017751 45.125 71.3125 C45.59082447 79.15387861 42.80314734 83.2594773 38.125 89.3125 C28.9928075 99.55743865 15.95994531 103.02430618 2.7265625 104.59765625 C-10.38065317 105.1580019 -22.99613373 100.53405477 -33.0625 92.375 C-44.16270806 81.83329298 -47.81410463 66.78033697 -48.3125 51.9375 C-47.9731023 37.74182215 -44.0042049 23.75398077 -34.3125 13.0625 C-24.63726192 4.03722993 -12.99567898 -0.09743975 0 0 Z M-14.76171875 25.8984375 C-19.17530532 30.79292333 -20.875 34.64146574 -20.875 41.3125 C-7.345 41.3125 6.185 41.3125 20.125 41.3125 C20.125 34.18036593 18.36227822 30.85129786 14.125 25.3125 C6.47150258 19.4388857 -7.31338718 19.63752111 -14.76171875 25.8984375 Z " fill="#F8F6F6" transform="translate(1112.875,218.6875)"/>
<path d="M0 0 C1.36125 0.8971875 1.36125 0.8971875 2.75 1.8125 C12.50463952 11.29617731 15.86929427 26.02875715 16.1875 39.1875 C16.0135664 51.93683271 13.1990852 65.87171828 5 76 C4.59007812 76.53625 4.18015625 77.0725 3.7578125 77.625 C-3.49675412 86.04480789 -16.10441045 91.66045538 -27.0078125 92.88671875 C-42.93689292 93.48977793 -57.40075356 89.69359229 -69.625 79.125 C-80.89247182 67.10814764 -83.6110392 51.20416983 -83.25 35.4140625 C-82.62974547 20.90630913 -76.6148072 8.80089227 -66 -1 C-46.02226544 -16.26167919 -19.4206187 -15.11290291 0 0 Z M-50.3125 17.3125 C-56.88077987 27.77309386 -57.34572287 40.08173486 -55.5390625 52.0546875 C-53.73020499 58.88578468 -50.3624857 64.93077803 -44.2578125 68.6875 C-37.7066234 71.32682798 -29.79613024 71.42747046 -23.1640625 68.93359375 C-16.33922934 64.77293965 -13.74256656 59.24584562 -11.75 51.75 C-9.66945498 40.82245272 -10.58304975 29.48042289 -15.8125 19.5625 C-19.77710182 14.91825216 -23.50101299 11.29198113 -29.85546875 10.76171875 C-38.34828859 10.57254691 -44.18132658 11.18132658 -50.3125 17.3125 Z " fill="#F9F7F7" transform="translate(929,230)"/>
<path d="M0 0 C8.18906183 5.81159227 13.64657586 13.16902422 15.58203125 23.1640625 C15.82530692 25.25491823 15.95519605 27.35851755 16.05859375 29.4609375 C12.29704807 31.34171034 7.76036101 30.68896395 3.62109375 30.7109375 C2.65365234 30.7315625 1.68621094 30.7521875 0.68945312 30.7734375 C-0.70370117 30.78117187 -0.70370117 30.78117187 -2.125 30.7890625 C-3.40201782 30.80308105 -3.40201782 30.80308105 -4.70483398 30.81738281 C-7.45180969 30.37959387 -8.26071925 29.63628233 -9.94140625 27.4609375 C-10.39515625 26.4915625 -10.84890625 25.5221875 -11.31640625 24.5234375 C-13.98933376 19.4859972 -17.66023034 17.27030084 -22.94140625 15.4609375 C-30.06043842 14.54578538 -36.04615773 15.22809318 -41.94140625 19.4609375 C-47.6152212 24.6747134 -48.86040975 31.76097082 -49.265625 39.171875 C-49.61354233 50.11263239 -48.79761081 58.85030112 -43.19140625 68.4609375 C-38.61124974 72.53218773 -33.14719641 74.03168349 -27.01953125 73.7421875 C-21.62236565 73.01174404 -16.71746869 71.84002827 -13.06640625 67.5859375 C-10.93790056 64.62033174 -10.93790056 64.62033174 -9.6550293 61.79614258 C-7.94140625 59.4609375 -7.94140625 59.4609375 -5.39770508 58.89331055 C-4.40794678 58.91949463 -3.41818848 58.94567871 -2.3984375 58.97265625 C-1.32529297 58.98876953 -0.25214844 59.00488281 0.85351562 59.02148438 C1.97306641 59.06337891 3.09261719 59.10527344 4.24609375 59.1484375 C5.37724609 59.17099609 6.50839844 59.19355469 7.67382812 59.21679688 C10.47007351 59.27578939 13.26367472 59.3580551 16.05859375 59.4609375 C16.27128168 69.41000601 12.06397378 76.75927101 5.5703125 84.15625 C-4.10335239 93.32582813 -17.39328928 96.48273685 -30.36328125 96.453125 C-43.30467284 95.75441137 -56.09835395 91.96234678 -65.25390625 82.3359375 C-74.60240763 70.93345327 -77.33329428 59.03241524 -77.25390625 44.6484375 C-77.2482666 43.58471924 -77.24262695 42.52100098 -77.23681641 41.42504883 C-77.02286498 27.61670878 -73.87508947 15.71525286 -64.44140625 5.2109375 C-47.17080485 -10.93043227 -19.73396573 -11.94900677 0 0 Z " fill="#F8F6F6" transform="translate(821.94140625,226.5390625)"/>
<path d="M0 0 C1.07507813 -0.00128906 2.15015625 -0.00257813 3.2578125 -0.00390625 C4.38960937 -0.00003906 5.52140625 0.00382813 6.6875 0.0078125 C7.81929687 0.00394531 8.95109375 0.00007812 10.1171875 -0.00390625 C11.19226563 -0.00261719 12.26734375 -0.00132812 13.375 0 C14.86580078 0.00169189 14.86580078 0.00169189 16.38671875 0.00341797 C18.6875 0.1328125 18.6875 0.1328125 19.6875 1.1328125 C19.78589707 2.83875341 19.81382028 4.54879221 19.81448364 6.25756836 C19.81730347 7.3681662 19.82012329 8.47876404 19.82302856 9.62301636 C19.82100433 10.85214752 19.8189801 12.08127869 19.81689453 13.34765625 C19.81864685 14.6336673 19.82039917 15.91967834 19.82220459 17.24465942 C19.82677853 20.78175414 19.82498953 24.31881982 19.8218255 27.85591507 C19.8193017 31.54969616 19.8216395 35.24347468 19.82321167 38.93725586 C19.82503331 45.14144337 19.82262721 51.34561898 19.81787109 57.54980469 C19.81242848 64.73264614 19.81419114 71.91545921 19.8196975 79.09829998 C19.8242288 85.25455055 19.8248791 91.41079256 19.82225883 97.56704426 C19.82069615 101.24862954 19.82050205 104.93020146 19.82379532 108.61178589 C19.82720812 112.71386407 19.82248402 116.81589297 19.81689453 120.91796875 C19.81891876 122.14709991 19.82094299 123.37623108 19.82302856 124.64260864 C19.81879883 126.3085054 19.81879883 126.3085054 19.81448364 128.00805664 C19.81410662 128.97924942 19.81372959 129.9504422 19.81334114 130.95106506 C19.6875 133.1328125 19.6875 133.1328125 18.6875 134.1328125 C16.90678754 134.22007473 15.1226686 134.23980291 13.33984375 134.23046875 C12.26025391 134.22724609 11.18066406 134.22402344 10.06835938 134.22070312 C8.93205078 134.21232422 7.79574219 134.20394531 6.625 134.1953125 C5.48482422 134.19080078 4.34464844 134.18628906 3.16992188 134.18164062 C0.34239649 134.16980997 -2.4850264 134.1533266 -5.3125 134.1328125 C-6.58964039 131.57853172 -6.43836356 129.78638134 -6.43948364 126.92576599 C-6.44230347 125.82220764 -6.44512329 124.71864929 -6.44802856 123.58164978 C-6.44600433 122.36546463 -6.4439801 121.14927948 -6.44189453 119.89624023 C-6.44364685 118.61983673 -6.44539917 117.34343323 -6.44720459 116.02835083 C-6.45177265 112.52230598 -6.44999205 109.01629047 -6.4468255 105.51024508 C-6.44429922 101.84716635 -6.44664014 98.18409018 -6.44821167 94.52101135 C-6.45003235 88.36987861 -6.44762948 82.21875787 -6.44287109 76.06762695 C-6.43742625 68.94668061 -6.43919315 61.82576289 -6.4446975 54.70481724 C-6.44922864 48.59950147 -6.44987925 42.49419435 -6.44725883 36.38887745 C-6.44569637 32.73860617 -6.44550149 29.08834836 -6.44879532 25.43807793 C-6.4522079 21.37203131 -6.4474843 17.30603442 -6.44189453 13.23999023 C-6.44391876 12.02178085 -6.44594299 10.80357147 -6.44802856 9.54844666 C-6.44520874 8.44770813 -6.44238892 7.3469696 -6.43948364 6.21287537 C-6.43910662 5.25035575 -6.43872959 4.28783613 -6.43834114 3.29614925 C-6.1921877 -0.93547786 -3.65614549 0.00414932 0 0 Z " fill="#F9F7F7" transform="translate(711.3125,185.8671875)"/>
<path d="M0 0 C1.07507813 -0.00128906 2.15015625 -0.00257813 3.2578125 -0.00390625 C4.38960937 -0.00003906 5.52140625 0.00382813 6.6875 0.0078125 C7.81929687 0.00394531 8.95109375 0.00007812 10.1171875 -0.00390625 C11.19226563 -0.00261719 12.26734375 -0.00132812 13.375 0 C14.86580078 0.00169189 14.86580078 0.00169189 16.38671875 0.00341797 C18.6875 0.1328125 18.6875 0.1328125 19.6875 1.1328125 C19.78814199 4.17147011 19.8236459 7.1874398 19.81689453 10.2265625 C19.81864685 11.18095215 19.82039917 12.1353418 19.82220459 13.11865234 C19.82662487 16.29005727 19.8236845 19.46140695 19.8203125 22.6328125 C19.82098549 24.82617198 19.82195547 27.0195314 19.82321167 29.21289062 C19.82468888 33.81641345 19.82253334 38.41991692 19.81787109 43.0234375 C19.8121738 48.93885845 19.81545268 54.85423404 19.82144356 60.76965332 C19.82504854 65.30078476 19.82391087 69.83190535 19.82131577 74.36303711 C19.82064632 76.54484055 19.82147552 78.72664496 19.82379532 80.90844727 C19.82632082 83.9520124 19.8224827 86.99550296 19.81689453 90.0390625 C19.81891876 90.95026855 19.82094299 91.86147461 19.82302856 92.80029297 C19.80176229 99.01855021 19.80176229 99.01855021 18.6875 100.1328125 C17.00364925 100.23216026 15.31568403 100.263613 13.62890625 100.265625 C12.60345703 100.26691406 11.57800781 100.26820313 10.52148438 100.26953125 C8.90209961 100.26373047 8.90209961 100.26373047 7.25 100.2578125 C6.17427734 100.26167969 5.09855469 100.26554687 3.99023438 100.26953125 C2.96349609 100.26824219 1.93675781 100.26695312 0.87890625 100.265625 C-0.06782959 100.26449707 -1.01456543 100.26336914 -1.98999023 100.26220703 C-4.3125 100.1328125 -4.3125 100.1328125 -6.3125 99.1328125 C-6.33562121 86.3724738 -6.35341395 73.61214005 -6.36431217 60.85178471 C-6.36954149 54.92730535 -6.37664001 49.00284028 -6.38793945 43.07836914 C-6.39876661 37.36608679 -6.40477647 31.65381822 -6.40737724 25.94152641 C-6.4092318 23.75692973 -6.412853 21.57233385 -6.41823006 19.387743 C-6.42543821 16.33928901 -6.42649104 13.29089271 -6.42602539 10.24243164 C-6.42962067 9.32965454 -6.43321594 8.41687744 -6.43692017 7.47644043 C-6.42448911 0.00729109 -6.42448911 0.00729109 0 0 Z " fill="#F9F7F6" transform="translate(564.3125,219.8671875)"/>
<path d="M0 0 C3.32065626 2.84627679 5.26660544 4.90052458 5.94140625 9.32421875 C6.24782402 15.14615632 5.10206422 18.58341381 1.625 23.25 C-1.69657801 26.26259401 -4.33620344 27.52381795 -8.75 27.8125 C-13.86511177 27.56192865 -17.59217474 25.65009235 -21.375 22.25 C-23.62978358 18.7587222 -25.06298487 15.41020167 -25.375 11.25 C-24.33157724 6.69688249 -22.68000784 3.55500784 -19.375 0.25 C-12.64203865 -3.7105655 -6.80171387 -3.5268146 0 0 Z " fill="#F7F4F3" transform="translate(580.375,183.75)"/>
<path d="M0 0 C1.5631897 0.00785522 1.5631897 0.00785522 3.15795898 0.01586914 C4.28266602 0.0190918 5.40737305 0.02231445 6.56616211 0.02563477 C7.75016602 0.03401367 8.93416992 0.04239258 10.15405273 0.05102539 C11.34192383 0.05553711 12.52979492 0.06004883 13.75366211 0.06469727 C16.69967499 0.07652864 19.64558954 0.09301252 22.59155273 0.11352539 C22.59155273 0.44352539 22.59155273 0.77352539 22.59155273 1.11352539 C14.67155273 1.11352539 6.75155273 1.11352539 -1.40844727 1.11352539 C-1.40844727 17.61352539 -1.40844727 34.11352539 -1.40844727 51.11352539 C-2.06844727 51.11352539 -2.72844727 51.11352539 -3.40844727 51.11352539 C-4.47619951 49.14886126 -5.47398192 47.1449718 -6.40844727 45.11352539 C-6.07844727 44.45352539 -5.74844727 43.79352539 -5.40844727 43.11352539 C-4.74844727 43.44352539 -4.08844727 43.77352539 -3.40844727 44.11352539 C-3.41368408 42.81616455 -3.4189209 41.51880371 -3.42431641 40.18212891 C-3.44236196 35.38705124 -3.45387763 30.59197659 -3.46337891 25.796875 C-3.46842015 23.71809383 -3.47525301 21.63931623 -3.48388672 19.56054688 C-3.49596149 16.57949953 -3.50167751 13.5984989 -3.50610352 10.61743164 C-3.51384544 9.2143148 -3.51384544 9.2143148 -3.52174377 7.78285217 C-3.52181931 6.92203537 -3.52189484 6.06121857 -3.52197266 5.17431641 C-3.52419327 4.41264664 -3.52641388 3.65097687 -3.52870178 2.8662262 C-3.3372675 0.07608544 -2.78939436 0.13148184 0 0 Z " fill="#E7D7D8" transform="translate(1028.408447265625,185.886474609375)"/>
<path d="M0 0 C-9.69374299 2.81883842 -19.0685538 3.25240556 -29.125 3.265625 C-31.04348755 3.27051941 -31.04348755 3.27051941 -33.00073242 3.2755127 C-38.36362753 3.27799966 -43.72575834 3.26501483 -49.08837891 3.20947266 C-53.03836241 3.17046217 -56.98735103 3.18694928 -60.9375 3.203125 C-62.14486816 3.17945862 -63.35223633 3.15579224 -64.59619141 3.13140869 C-70.80738578 3.08301838 -70.80738578 3.08301838 -76.29345703 5.61169434 C-78.20035522 7.49101536 -78.20035522 7.49101536 -79.73266602 9.49676514 C-80.35999634 10.24086639 -80.35999634 10.24086639 -81 11 C-81.66 11 -82.32 11 -83 11 C-81.4803213 6.8968675 -78.84000498 4.01597541 -75 2 C-70.89829097 1.270107 -66.84863245 1.32628457 -62.69140625 1.36328125 C-61.49249252 1.35290329 -60.2935788 1.34252533 -59.05833435 1.33183289 C-55.22609873 1.30217145 -51.39482936 1.30551241 -47.5625 1.3125 C-42.54284728 1.30067552 -37.52344177 1.27418054 -32.50390625 1.23828125 C-31.30601471 1.23176544 -30.10812317 1.22524963 -28.87393188 1.21853638 C-21.33377423 1.14006775 -14.08888453 0.65482994 -6.66772461 -0.67114258 C-4.07423907 -0.99084835 -2.44923095 -0.83894887 0 0 Z " fill="#DFCAC9" transform="translate(318,241)"/>
<path d="M0 0 C0.33 0 0.66 0 1 0 C1 16.17 1 32.34 1 49 C-0.32 47.35 -1.64 45.7 -3 44 C-2.67 43.34 -2.34 42.68 -2 42 C-1.34 42.33 -0.68 42.66 0 43 C0 28.81 0 14.62 0 0 Z " fill="#BCABAE" transform="translate(1025,187)"/>
<path d="M0 0 C0.66 0.33 1.32 0.66 2 1 C1.03900391 1.85271484 1.03900391 1.85271484 0.05859375 2.72265625 C-5.11530342 7.34138114 -10.16792647 12.02392428 -15 17 C-15 12.17230828 -11.56484902 9.80901908 -8.40234375 6.38671875 C-5.74265849 3.74433226 -3.25091391 1.83384887 0 0 Z " fill="#DED2D1" transform="translate(869,225)"/>
<path d="M0 0 C0.66 0 1.32 0 2 0 C1.67 4.62 1.34 9.24 1 14 C0.67 14 0.34 14 0 14 C-0.12375 13.030625 -0.2475 12.06125 -0.375 11.0625 C-0.58125 10.051875 -0.7875 9.04125 -1 8 C-1.66 7.67 -2.32 7.34 -3 7 C-2.01 4.69 -1.02 2.38 0 0 Z " fill="#967E80" transform="translate(1025,303)"/>
<path d="M0 0 C-1.40844718 3.21524305 -3.10344786 5.32183868 -5.625 7.75 C-6.57246094 8.67039063 -6.57246094 8.67039063 -7.5390625 9.609375 C-8.02117188 10.06828125 -8.50328125 10.5271875 -9 11 C-9.33 10.01 -9.66 9.02 -10 8 C-8.71451591 6.66070495 -7.42141845 5.32871357 -6.125 4 C-5.04605469 2.88625 -5.04605469 2.88625 -3.9453125 1.75 C-2 0 -2 0 0 0 Z " fill="#E1D7D5" transform="translate(764,228)"/>
<path d="M0 0 C0 3 0 3 -1.42578125 4.7890625 C-2.04839844 5.39492187 -2.67101562 6.00078125 -3.3125 6.625 C-4.23482422 7.54152344 -4.23482422 7.54152344 -5.17578125 8.4765625 C-7 10 -7 10 -10 11 C-10 10.34 -10 9.68 -10 9 C-9.34 9 -8.68 9 -8 9 C-7.79375 8.443125 -7.5875 7.88625 -7.375 7.3125 C-5.44999226 4.07498698 -2.96149098 2.31768859 0 0 Z " fill="#DBD1D0" transform="translate(617,227)"/>
<path d="M0 0 C0.33 0 0.66 0 1 0 C1 4.62 1 9.24 1 14 C-0.32 12.35 -1.64 10.7 -3 9 C-2.67 8.34 -2.34 7.68 -2 7 C-1.34 7.33 -0.68 7.66 0 8 C0 5.36 0 2.72 0 0 Z " fill="#A48B8D" transform="translate(1025,222)"/>
<path d="M0 0 C0.66 0.33 1.32 0.66 2 1 C1.0479279 2.00596297 0.08812654 3.00461563 -0.875 4 C-1.40867188 4.556875 -1.94234375 5.11375 -2.4921875 5.6875 C-4 7 -4 7 -6 7 C-4.60667426 3.63279613 -3.0210714 2.0140476 0 0 Z " fill="#E0BBD8" transform="translate(241,245)"/>
</svg>
