<?xml version="1.0" encoding="UTF-8"?>
<svg version="1.1" xmlns="http://www.w3.org/2000/svg" width="512" height="512">
<path d="M0 0 C2.10547938 -0.00134986 4.21095845 -0.00329306 6.31643677 -0.00579834 C10.71570827 -0.00873577 15.11489819 -0.00449741 19.51416016 0.00488281 C25.12100683 0.01626232 30.72766166 0.00971848 36.33450127 -0.00226212 C40.6791017 -0.00953015 45.02365756 -0.00716996 49.36825943 -0.00200653 C51.43408354 -0.00068294 53.49991185 -0.0022719 55.56573105 -0.00696564 C76.15188187 -0.04347704 96.23278586 0.72549025 112.3828125 15.265625 C126.84880468 29.95455199 128.8546598 49.38371958 128.73852539 69.02807617 C128.36200124 87.14123252 124.34755201 102.6914869 111.8828125 116.328125 C100.29613561 127.40622638 84.92443498 132.17136382 69.3828125 134.265625 C74.07080178 141.0178231 79.57302187 146.65816855 85.43161964 152.37306595 C87.12283378 154.02439959 88.80603076 155.68353528 90.48722839 157.34506226 C95.26251504 162.06269614 100.04779607 166.77000762 104.84741211 171.46289062 C107.79573549 174.34674167 110.73170936 177.2426898 113.66028404 180.14658737 C114.77400361 181.24607705 115.89237309 182.34087776 117.01548195 183.43077469 C118.58292742 184.95244772 120.13421442 186.48901716 121.68286133 188.02978516 C122.56855301 188.89834137 123.45424469 189.76689758 124.36677551 190.66177368 C126.67020881 193.63681723 127.20710928 195.53506376 127.3828125 199.265625 C126.1953125 201.35546875 126.1953125 201.35546875 124.3828125 203.203125 C123.73570312 203.87859375 123.08859375 204.5540625 122.421875 205.25 C121.74898437 205.91515625 121.07609375 206.5803125 120.3828125 207.265625 C119.77179688 207.88953125 119.16078125 208.5134375 118.53125 209.15625 C116.83223739 210.87771652 115.1115192 212.57405043 113.3828125 214.265625 C112.4546875 215.19375 111.5265625 216.121875 110.5703125 217.078125 C106.3828125 221.265625 106.3828125 221.265625 102.7578125 221.828125 C98.9775523 221.73809239 97.29480503 220.70044301 94.54359436 218.15660095 C93.84921328 217.51917906 93.15483219 216.88175716 92.43940926 216.22501945 C89.40302175 213.33214275 86.39575553 210.41817601 83.43530273 207.44750977 C82.47018265 206.48501816 82.47018265 206.48501816 81.48556519 205.50308228 C79.38501092 203.40688565 77.28808474 201.30710398 75.19140625 199.20703125 C73.71759876 197.73389855 72.24364296 196.26091423 70.76954651 194.78807068 C67.69084719 191.71084009 64.61394939 188.63182256 61.53833008 185.55151367 C57.61245144 181.61993828 53.6820998 177.69287006 49.75038052 173.76713657 C46.70896363 170.72934759 43.66995024 167.6891631 40.63163948 164.64826775 C39.18401365 163.19997882 37.73565565 161.75242132 36.28652763 160.30563545 C34.25555289 158.27722401 32.22785116 156.24559354 30.20092773 154.21313477 C29.61216354 153.62639481 29.02339935 153.03965485 28.41679382 152.43513489 C24.7708435 148.77088488 21.32430092 144.9787053 17.95660305 141.05695438 C15.6635415 138.44693202 13.21029963 136.07030064 10.703125 133.6640625 C9.68171463 132.66986332 8.66089754 131.67505431 7.640625 130.6796875 C6.06626773 129.14876077 4.48847667 127.62215846 2.90039062 126.10546875 C1.34386811 124.61562713 -0.19616223 123.11027107 -1.734375 121.6015625 C-2.64815918 120.72032715 -3.56194336 119.8390918 -4.50341797 118.93115234 C-6.89778374 115.91178465 -7.45423435 114.08479818 -7.6171875 110.265625 C-5.36882095 105.41388665 -2.05985045 101.2274003 2.3828125 98.265625 C4.94065857 98.00061035 4.94065857 98.00061035 8.04077148 97.97851562 C9.78420082 97.95839417 9.78420082 97.95839417 11.56285095 97.93786621 C12.8221492 97.93258911 14.08144745 97.92731201 15.37890625 97.921875 C17.36455295 97.89952363 19.35019959 97.87716149 21.33583927 97.85419464 C24.83059825 97.8164635 28.32544911 97.79151735 31.8203125 97.765625 C35.95655562 97.73472431 40.09268636 97.70129712 44.22877502 97.65368652 C46.80318595 97.62489856 49.37770664 97.60433083 51.95225525 97.59338379 C69.0608983 97.48502003 69.0608983 97.48502003 83.91015625 89.91796875 C90.10734507 83.18189394 90.29660819 73.98183893 90.3828125 65.265625 C89.79626234 56.34633842 88.9531359 50.00521964 82.6953125 43.515625 C76.5067998 40.170483 69.28513501 39.96906573 62.39404297 39.9909668 C61.12146637 39.9833004 61.12146637 39.9833004 59.82318115 39.97547913 C57.04871357 39.96169954 54.27449749 39.96253035 51.5 39.96484375 C49.55664987 39.96095184 47.61330059 39.95661616 45.66995239 39.95185852 C41.61018099 39.94442242 37.55049662 39.94466964 33.49072266 39.94995117 C28.29792653 39.95575762 23.10548571 39.93877375 17.91274834 39.9156065 C13.90465222 39.90085496 9.89664156 39.89999914 5.8885231 39.90311623 C3.9740338 39.90260424 2.05953956 39.8973895 0.14507675 39.88730431 C-2.53258504 39.87492273 -5.20955573 39.88174061 -7.88720703 39.89331055 C-8.67076569 39.88566681 -9.45432434 39.87802307 -10.2616272 39.87014771 C-17.65225937 39.9404813 -22.89968938 42.13748883 -28.3671875 47.265625 C-29.21410156 48.05839844 -30.06101562 48.85117188 -30.93359375 49.66796875 C-37.40629329 55.93339116 -43.83589575 62.17973253 -49.67578125 69.046875 C-51.24067947 70.83533011 -52.83281019 72.57077764 -54.46484375 74.296875 C-67.68790675 87.8327611 -67.68790675 87.8327611 -71.8515625 105.59765625 C-71.56955867 108.80779988 -70.57916771 110.73140056 -68.6171875 113.265625 C-68.6171875 113.925625 -68.6171875 114.585625 -68.6171875 115.265625 C-67.9571875 115.265625 -67.2971875 115.265625 -66.6171875 115.265625 C-65.15415096 116.74922371 -65.15415096 116.74922371 -63.4606781 118.79202271 C-59.86555614 123.01664823 -56.06227213 126.94271388 -52.12133789 130.84326172 C-51.05178864 131.90821114 -51.05178864 131.90821114 -49.96063232 132.99467468 C-48.42744198 134.52076363 -46.89312412 136.04572052 -45.35777473 137.5696373 C-42.93069133 139.97921864 -40.50726534 142.39242391 -38.08482361 144.80667114 C-31.20232923 151.66479418 -24.31408871 158.5171252 -17.42163086 165.36523438 C-13.19485415 169.56531612 -8.97289001 173.77018511 -4.75390434 177.97809219 C-3.14534372 179.5804291 -1.53488627 181.18086408 0.07746696 182.77938461 C2.32040263 185.00322526 4.55722262 187.23304601 6.79272461 189.46435547 C7.46433121 190.12720047 8.13593781 190.79004547 8.82789612 191.47297668 C9.43201324 192.07839798 10.03613037 192.68381927 10.65855408 193.30758667 C11.18778945 193.83367964 11.71702482 194.35977261 12.26229763 194.90180779 C13.3828125 196.265625 13.3828125 196.265625 13.3828125 198.265625 C14.218125 198.6059375 14.218125 198.6059375 15.0703125 198.953125 C19.69188548 201.57617993 23.42892478 205.88949504 26.3828125 210.265625 C26.9453125 212.765625 26.9453125 212.765625 26.3828125 215.265625 C23.589328 218.88812397 22.11399079 220.14234305 17.5456543 220.91259766 C16.05813083 220.94540705 14.56978404 220.94954146 13.08203125 220.9296875 C11.88922295 220.93686295 11.88922295 220.93686295 10.6723175 220.94418335 C8.9938458 220.94757672 7.31530749 220.93841348 5.63696289 220.91748047 C3.08782713 220.89080826 0.54313633 220.9171869 -2.00585938 220.94921875 C-17.5633698 220.99478748 -17.5633698 220.99478748 -23.6171875 215.265625 C-24.82181641 214.23272339 -24.82181641 214.23272339 -26.05078125 213.17895508 C-35.36538551 204.96032852 -44.03178089 196.00275186 -52.80053711 187.21264648 C-55.4381568 184.5696384 -58.0811174 181.93205519 -60.72460938 179.29492188 C-62.4248001 177.59407075 -64.12468081 175.89290966 -65.82421875 174.19140625 C-66.60352249 173.41412674 -67.38282623 172.63684723 -68.18574524 171.83601379 C-72.3158728 167.68832996 -76.2613434 163.44845082 -80.08183289 159.01445007 C-82.01908127 156.80785329 -84.08070932 154.76977902 -86.2109375 152.75 C-100.73432673 138.76792779 -111.29423245 126.30883176 -112.08764648 105.17016602 C-112.25005458 91.60707636 -108.60502563 80.85785259 -101.6171875 69.265625 C-100.94623047 68.11707031 -100.94623047 68.11707031 -100.26171875 66.9453125 C-98.04011575 63.24036226 -95.80481362 60.22556354 -92.6171875 57.265625 C-92.2871875 56.605625 -91.9571875 55.945625 -91.6171875 55.265625 C-90.9571875 55.265625 -90.2971875 55.265625 -89.6171875 55.265625 C-89.34648437 54.67652344 -89.07578125 54.08742187 -88.796875 53.48046875 C-87.62531472 51.28088372 -86.40042977 49.68024137 -84.7421875 47.828125 C-84.12988281 47.14234375 -83.51757812 46.4565625 -82.88671875 45.75 C-79.57220735 42.12172246 -76.23764357 38.51179987 -72.88134766 34.92211914 C-70.59335417 32.46407713 -68.43674104 30.03227277 -66.37890625 27.37109375 C-65.79753906 26.67628906 -65.21617187 25.98148438 -64.6171875 25.265625 C-63.9571875 25.265625 -63.2971875 25.265625 -62.6171875 25.265625 C-62.6171875 24.605625 -62.6171875 23.945625 -62.6171875 23.265625 C-61.9571875 23.265625 -61.2971875 23.265625 -60.6171875 23.265625 C-60.6171875 22.605625 -60.6171875 21.945625 -60.6171875 21.265625 C-59.01439327 19.44912487 -57.41514845 17.88053562 -55.6171875 16.265625 C-54.92367187 15.64042969 -54.23015625 15.01523438 -53.515625 14.37109375 C-37.22407204 0.49408692 -20.33946635 -0.04610847 0 0 Z " fill="#F6F6F6" transform="translate(247.6171875,145.734375)"/>
<path d="M0 0 C11.53507181 -0.02315752 23.07013811 -0.04093253 34.60522842 -0.05181217 C39.96127391 -0.05703351 45.3173035 -0.06411763 50.67333984 -0.07543945 C55.84099229 -0.08629485 61.00862945 -0.09228249 66.17629242 -0.09487724 C68.14907828 -0.09672669 70.12186328 -0.10033813 72.09464264 -0.10573006 C74.85510577 -0.11297563 77.61550547 -0.11398945 80.37597656 -0.11352539 C81.19381119 -0.11712067 82.01164581 -0.12071594 82.85426331 -0.12442017 C86.40898029 -0.11794242 89.57998698 0.04233679 93 1 C93 1.66 93 2.32 93 3 C62.31 2.67 31.62 2.34 0 2 C0 1.34 0 0.68 0 0 Z " fill="#8D8F92" transform="translate(231,183)"/>
<path d="M0 0 C1.80152779 0.00022659 1.80152779 0.00022659 3.63945007 0.00045776 C4.93639297 0.01078033 6.23333588 0.02110291 7.56958008 0.03173828 C8.91050506 0.03546923 10.25143277 0.03831582 11.59236145 0.04031372 C15.11875965 0.04794379 18.64499267 0.06758675 22.17132568 0.08972168 C25.77085129 0.11019368 29.37040364 0.11931833 32.9699707 0.12939453 C40.03058509 0.15083333 47.09108741 0.18496165 54.15161133 0.22705078 C54.15161133 0.55705078 54.15161133 0.88705078 54.15161133 1.22705078 C34.68161133 1.22705078 15.21161133 1.22705078 -4.84838867 1.22705078 C-5.50838867 2.54705078 -6.16838867 3.86705078 -6.84838867 5.22705078 C-7.85789445 6.17901996 -8.90108708 7.09641662 -9.97338867 7.97705078 C-11.91520911 9.81518178 -12.75958992 10.73510568 -13.23901367 13.39111328 C-13.25701448 15.84288372 -13.25701448 15.84288372 -12.84838867 19.22705078 C-13.50838867 18.89705078 -14.16838867 18.56705078 -14.84838867 18.22705078 C-15.86318395 14.79235908 -16.18589799 12.95536036 -14.66088867 9.66455078 C-7.45119667 -0.03124191 -7.45119667 -0.03124191 0 0 Z " fill="#2A2A2B" transform="translate(255.848388671875,243.77294921875)"/>
<path d="M0 0 C0.66 0.33 1.32 0.66 2 1 C-3.70061163 7.61011093 -9.73092266 13.86643681 -15.875 20.0625 C-16.62450928 20.8248999 -17.37401855 21.5872998 -18.14624023 22.37280273 C-19.21467163 23.44316772 -19.21467163 23.44316772 -20.3046875 24.53515625 C-20.94390137 25.178479 -21.58311523 25.82180176 -22.24169922 26.48461914 C-24 28 -24 28 -27 29 C-25.42491141 25.33620697 -23.15806427 22.70148695 -20.5 19.75 C-19.7059375 18.85796875 -18.911875 17.9659375 -18.09375 17.046875 C-16 15 -16 15 -14 15 C-14 14.34 -14 13.68 -14 13 C-13.34 13 -12.68 13 -12 13 C-12 12.34 -12 11.68 -12 11 C-8.3145494 6.97950843 -4.17443363 3.50074982 0 0 Z " fill="#8D8E8F" transform="translate(199,156)"/>
<path d="M0 0 C1.32 0.33 2.64 0.66 4 1 C3.4225 1.4846875 2.845 1.969375 2.25 2.46875 C-2.16047824 6.22750443 -2.16047824 6.22750443 -4.53125 11.3125 C-4.54314805 13.72823962 -4.54314805 13.72823962 -4 17 C-4.66 16.67 -5.32 16.34 -6 16 C-7.01479527 12.5653083 -7.33750932 10.72830958 -5.8125 7.4375 C-3.93125945 4.90755581 -2.01157047 2.42775747 0 0 Z " fill="#8C8D8E" transform="translate(247,246)"/>
</svg>
